<svg xmlns="http://www.w3.org/2000/svg" viewBox="0 0 32 32" width="32" height="32">
  <style>
    .bg { fill: #1a2f4a; }
    .fg { fill: #f3ead8; }
    .dot { fill: #c0392b; }
    @media (prefers-color-scheme: dark) {
      .bg { fill: #f3ead8; }
      .fg { fill: #1a2f4a; }
    }
  </style>
  <rect class="bg" x="0" y="0" width="32" height="32" rx="7"/>
  <!-- B monogram, bold, legible at 16px -->
  <path class="fg" d="M9 7.5h7.4c2.7 0 4.4 1.4 4.4 3.7 0 1.5-.8 2.6-2.1 3.1 1.7.4 2.8 1.7 2.8 3.5 0 2.6-1.9 4.2-5 4.2H9V7.5zm3.1 2.6v3.3h3.6c1.2 0 1.9-.6 1.9-1.7s-.7-1.6-1.9-1.6h-3.6zm0 5.7v3.9h3.9c1.3 0 2.1-.7 2.1-2s-.8-1.9-2.1-1.9h-3.9z"/>
  <circle class="dot" cx="24.5" cy="23.5" r="2.4"/>
</svg>
